<svg width="32" height="32" viewBox="0 0 32 32" fill="none" xmlns="http://www.w3.org/2000/svg">
  <!-- Background Circle with gradient -->
  <circle cx="16" cy="16" r="16" fill="url(#bgGradient)"/>
  
  <!-- Main Logo Circle -->
  <circle cx="16" cy="16" r="12" fill="url(#mainGradient)" stroke="white" stroke-width="0.5"/>
  
  <!-- Inner Circle -->
  <circle cx="16" cy="16" r="8" fill="url(#innerGradient)"/>
  
  <!-- Center Film Reel Icon -->
  <g transform="translate(16, 16)">
    <!-- Film Reel Center -->
    <circle cx="0" cy="0" r="4" fill="white"/>
    
    <!-- Film Reel Holes -->
    <circle cx="0" cy="-6" r="1" fill="url(#bgGradient)"/>
    <circle cx="6" cy="0" r="1" fill="url(#bgGradient)"/>
    <circle cx="0" cy="6" r="1" fill="url(#bgGradient)"/>
    <circle cx="-6" cy="0" r="1" fill="url(#bgGradient)"/>
    
    <!-- Diagonal Holes -->
    <circle cx="4.2" cy="-4.2" r="0.8" fill="url(#bgGradient)"/>
    <circle cx="4.2" cy="4.2" r="0.8" fill="url(#bgGradient)"/>
    <circle cx="-4.2" cy="4.2" r="0.8" fill="url(#bgGradient)"/>
    <circle cx="-4.2" cy="-4.2" r="0.8" fill="url(#bgGradient)"/>
  </g>
  
  <!-- Small circles representing "circles" concept -->
  <circle cx="6" cy="6" r="1.5" fill="white" opacity="0.6"/>
  <circle cx="26" cy="6" r="1.5" fill="white" opacity="0.6"/>
  <circle cx="6" cy="26" r="1.5" fill="white" opacity="0.6"/>
  <circle cx="26" cy="26" r="1.5" fill="white" opacity="0.6"/>
  
  <!-- Corner accents -->
  <circle cx="10" cy="10" r="0.8" fill="white" opacity="0.4"/>
  <circle cx="22" cy="10" r="0.8" fill="white" opacity="0.4"/>
  <circle cx="10" cy="22" r="0.8" fill="white" opacity="0.4"/>
  <circle cx="22" cy="22" r="0.8" fill="white" opacity="0.4"/>
  
  <!-- Gradients -->
  <defs>
    <!-- Background gradient: Purple to Pink to Cyan -->
    <linearGradient id="bgGradient" x1="0%" y1="0%" x2="100%" y2="100%">
      <stop offset="0%" style="stop-color:#8B5CF6;stop-opacity:1" />
      <stop offset="50%" style="stop-color:#EC4899;stop-opacity:1" />
      <stop offset="100%" style="stop-color:#06B6D4;stop-opacity:1" />
    </linearGradient>
    
    <!-- Main circle gradient: Purple to Gold -->
    <linearGradient id="mainGradient" x1="0%" y1="0%" x2="100%" y2="100%">
      <stop offset="0%" style="stop-color:#A855F7;stop-opacity:1" />
      <stop offset="100%" style="stop-color:#F59E0B;stop-opacity:1" />
    </linearGradient>
    
    <!-- Inner circle gradient: Pink to Purple -->
    <linearGradient id="innerGradient" x1="0%" y1="0%" x2="100%" y2="100%">
      <stop offset="0%" style="stop-color:#EC4899;stop-opacity:1" />
      <stop offset="100%" style="stop-color:#8B5CF6;stop-opacity:1" />
    </linearGradient>
  </defs>
</svg>
